<svg xmlns="http://www.w3.org/2000/svg" xmlns:xlink="http://www.w3.org/1999/xlink"><symbol class="svg-icon" id="post-author" viewBox="0 0 24 24"><title>post-author</title><path fill="#666" d="M12 12c2.21 0 4-1.79 4-4s-1.79-4-4-4-4 1.79-4 4 1.79 4 4 4zm0 2c-2.67 0-8 1.34-8 4v2h16v-2c0-2.66-5.33-4-8-4z"/><path d="M0 0h24v24H0z" fill="none"/></symbol><symbol class="svg-icon" id="post-category" viewBox="0 0 24 24"><title>post-category</title><path fill="#666" d="M10 4H4c-1.1 0-1.99.9-1.99 2L2 18c0 1.1.9 2 2 2h16c1.1 0 2-.9 2-2V8c0-1.1-.9-2-2-2h-8l-2-2z"/><path d="M0 0h24v24H0z" fill="none"/></symbol><symbol id="post-date" viewBox="0 0 24 24"><title>post-date</title><defs><path fill="#666" fill-opacity="1" id="a" d="M0 0h24v24H0V0z"/></defs><clipPath id="b"><use xmlns:xlink="http://www.w3.org/1999/xlink" xlink:href="#a" overflow="visible"/></clipPath><path clip-path="url(#b)" fill="#666" d="M12 2C6.5 2 2 6.5 2 12s4.5 10 10 10 10-4.5 10-10S17.5 2 12 2zm4.2 14.2L11 13V7h1.5v5.2l4.5 2.7-.8 1.3z"/></symbol><symbol id="post-tag" viewBox="0 0 24 24"><title>post-tag</title><path fill="#666" d="m21.41 11.58-9-9C12.05 2.22 11.55 2 11 2H4c-1.1 0-2 .9-2 2v7c0 .55.22 1.05.59 1.42l9 9c.36.36.86.58 1.41.58.55 0 1.05-.22 1.41-.59l7-7c.37-.36.59-.86.59-1.41 0-.55-.23-1.06-.59-1.42zM5.5 7C4.67 7 4 6.33 4 5.5S4.67 4 5.5 4 7 4.67 7 5.5 6.33 7 5.5 7z"/><path d="M0 0h24v24H0z" fill="none"/></symbol></svg>